<svg width="142" height="40" viewBox="0 0 142 40" fill="none" xmlns="http://www.w3.org/2000/svg">
<path d="M100.779 14.8354H95.4819V34.1581H100.779V14.8354Z" fill="white"/>
<path d="M87.9852 14.8354L82.8018 28.8994L77.6184 14.8354H72.3218L79.4501 34.1675H80.8569H84.7373H86.1441L93.2724 14.8354H87.9852Z" fill="white"/>
<path d="M119.473 19.0969V14.8354H113.137V9.50146H107.85V14.8354H103.667V19.0969H107.85V27.413C107.85 31.7028 110.003 34.5626 115.498 34.5626C117.622 34.5626 119.482 33.7912 119.482 33.7912L118.84 29.6143C118.84 29.6143 117.801 29.9248 116.517 29.9248C114.95 29.9248 113.147 29.2569 113.147 27.0838V19.0969H119.473Z" fill="white"/>
<path d="M68.3846 34.1675H74.0212L63.5789 5.86084H62.7386H60.8031H59.5002L49.0579 34.1675H54.6944L56.6866 28.7677H66.383L68.3846 34.1675ZM58.2539 24.4968L61.5395 15.5974L64.8157 24.4968H58.2539Z" fill="white"/>
<path d="M131.605 14.3462C125.874 14.3462 121.219 18.8805 121.219 24.4685C121.219 30.0564 125.874 34.5908 131.605 34.5908C137.336 34.5908 142 30.0564 142 24.4685C142 18.8805 137.336 14.3462 131.605 14.3462ZM131.605 29.746C128.659 29.746 126.261 27.413 126.261 24.5437C126.261 21.6651 128.65 19.3415 131.605 19.3415C134.56 19.3415 136.949 21.6745 136.949 24.5437C136.949 27.413 134.56 29.746 131.605 29.746Z" fill="white"/>
<path d="M101.543 9.18125C101.543 11.0627 100.014 12.5773 98.1349 12.5773C96.2466 12.5773 94.717 11.0533 94.717 9.18125C94.717 7.30919 96.2466 5.7852 98.1349 5.7852C100.014 5.77579 101.543 7.29978 101.543 9.18125Z" fill="white"/>
<path d="M17.835 8.88053C17.835 13.7912 13.8412 17.7705 8.92221 17.7705C3.99375 17.7705 0 13.7912 0 8.88053C0 3.9793 3.99375 0 8.92221 0C13.8412 0 17.835 3.9793 17.835 8.88053Z" fill="white"/>
<path d="M40.1451 29.1909C40.1451 35.1645 35.2827 39.9999 29.2968 39.9999C23.3109 39.9999 18.458 35.1645 18.458 29.1909C18.458 23.2172 23.3109 18.3818 29.2968 18.3818C35.2922 18.3818 40.1451 23.2172 40.1451 29.1909Z" fill="white"/>
<path d="M36.2838 8.88073C36.2838 12.7189 33.1587 15.8422 29.2971 15.8422C25.445 15.8422 22.3198 12.7283 22.3198 8.88073C22.3198 5.04254 25.445 1.92871 29.2971 1.92871C33.1587 1.92871 36.2838 5.04254 36.2838 8.88073Z" fill="white"/>
<path d="M13.9735 29.1911C13.9735 31.9757 11.7075 34.2241 8.92229 34.2241C6.13705 34.2241 3.87109 31.9757 3.87109 29.1911C3.87109 26.4066 6.13705 24.1582 8.92229 24.1582C11.7075 24.1582 13.9735 26.416 13.9735 29.1911Z" fill="white"/>
</svg>
